<?xml version="1.0" encoding="UTF-8" standalone="no"?>
<!-- Created with Inkscape (http://www.inkscape.org/) -->

<svg
   xmlns:dc="http://purl.org/dc/elements/1.1/"
   xmlns:cc="http://creativecommons.org/ns#"
   xmlns:rdf="http://www.w3.org/1999/02/22-rdf-syntax-ns#"
   xmlns:svg="http://www.w3.org/2000/svg"
   xmlns="http://www.w3.org/2000/svg"
   xmlns:sodipodi="http://sodipodi.sourceforge.net/DTD/sodipodi-0.dtd"
   xmlns:inkscape="http://www.inkscape.org/namespaces/inkscape"
   width="53.403023mm"
   height="30.38554mm"
   viewBox="0 0 53.403023 30.38554"
   version="1.1"
   id="svg8"
   inkscape:version="0.92.5 (2060ec1f9f, 2020-04-08)"
   sodipodi:docname="cleanx-logo.svg">
  <style type="text/css"><![CDATA[
    @media (prefers-color-scheme: dark) {
        #text5397 {
            font-style:normal;
            font-weight:normal;
            font-size:10.58333302px;
            line-height:1.25;
            font-family:sans-serif;
            letter-spacing:0px;
            word-spacing:0px;
            fill:#ffffff;
            fill-opacity:1;
            stroke:none;
            stroke-width:0.26458332
        }
    }
    @media (prefers-color-scheme: light) {
        #text5397 {
            font-style:normal;
            font-weight:normal;
            font-size:10.58333302px;
            line-height:1.25;
            font-family:sans-serif;
            letter-spacing:0px;
            word-spacing:0px;
            fill:#888888;
            fill-opacity:1;
            stroke:none;
            stroke-width:0.26458332
        }
    }
  ]]></style>
  <defs
     id="defs2" />
  <sodipodi:namedview
     id="base"
     pagecolor="#ffffff"
     bordercolor="#666666"
     borderopacity="1.0"
     inkscape:pageopacity="0.0"
     inkscape:pageshadow="2"
     inkscape:zoom="1.5927133"
     inkscape:cx="185.88058"
     inkscape:cy="-55.933391"
     inkscape:document-units="mm"
     inkscape:current-layer="layer1"
     showgrid="true"
     showguides="true"
     inkscape:guide-bbox="true"
     inkscape:window-width="1918"
     inkscape:window-height="1078"
     inkscape:window-x="1"
     inkscape:window-y="1"
     inkscape:window-maximized="0"
     gridtolerance="10">
    <inkscape:grid
       type="xygrid"
       id="grid143"
       originx="-44.251119"
       originy="-248.12661" />
  </sodipodi:namedview>
  <metadata
     id="metadata5">
    <rdf:RDF>
      <cc:Work
         rdf:about="">
        <dc:format>image/svg+xml</dc:format>
        <dc:type
           rdf:resource="http://purl.org/dc/dcmitype/StillImage" />
        <dc:title></dc:title>
      </cc:Work>
    </rdf:RDF>
  </metadata>
  <g
     inkscape:label="Layer 1"
     inkscape:groupmode="layer"
     id="layer1"
     transform="translate(-44.251116,-18.487863)">
    <g
       id="g5448"
       transform="translate(26.467054,-16.154428)">
      <g
         transform="rotate(-17.141079,-676.95059,278.34683)"
         id="g5393">
        <path
           inkscape:connector-curvature="0"
           style="fill:#009d80;fill-opacity:0.31372549;stroke-width:0.26393938"
           d="m 56.885424,262.60418 a 2.6458333,2.6458333 0 0 0 -2.645833,2.64583 2.6458333,2.6458333 0 0 0 0.658873,1.74253 h -0.01034 c 0.61854,0.79446 1.16427,1.43247 1.16427,2.22622 0,0.79374 -0.54573,1.43175 -1.16427,2.22622 h 0.0093 a 2.6458333,2.6458333 0 0 0 -0.657841,1.74252 2.6458333,2.6458333 0 0 0 2.645833,2.64583 2.6458333,2.6458333 0 0 0 2.645833,-2.64583 2.6458333,2.6458333 0 0 0 -0.658873,-1.74252 h 0.01034 c -0.61854,-0.79447 -1.16427,-1.43248 -1.16427,-2.22622 0,-0.74391 0.483783,-1.35525 1.053166,-2.08256 0.727316,-0.56938 1.338654,-1.05317 2.08256,-1.05317 0.793747,0 1.431753,0.54573 2.22622,1.16427 v -0.009 a 2.6458333,2.6458333 0 0 0 1.74253,0.65784 2.6458333,2.6458333 0 0 0 2.645833,-2.64583 2.6458333,2.6458333 0 0 0 -2.645833,-2.64583 2.6458333,2.6458333 0 0 0 -1.74253,0.65887 v -0.0103 c -0.794467,0.61854 -1.432473,1.16427 -2.22622,1.16427 -0.793748,0 -1.431753,-0.54573 -2.22622,-1.16427 v 0.009 a 2.6458333,2.6458333 0 0 0 -1.742528,-0.65787 z"
           id="path92-0-2-96-2" />
        <path
           inkscape:connector-curvature="0"
           style="fill:#0082a4;fill-opacity:0.31372549;stroke-width:0.26393938"
           d="m 64.822934,254.66667 a 2.6458333,2.6458333 0 0 0 -2.645833,2.64584 2.6458333,2.6458333 0 0 0 0.658873,1.74253 h -0.01035 c 0.61854,0.79445 1.16427,1.43247 1.16427,2.22622 0,0.79373 -0.54573,1.43175 -1.16427,2.22622 h 0.0093 a 2.6458333,2.6458333 0 0 0 -0.657841,1.74252 2.6458333,2.6458333 0 0 0 2.645833,2.64583 2.6458333,2.6458333 0 0 0 2.645834,-2.64583 2.6458333,2.6458333 0 0 0 -0.658874,-1.74252 h 0.01035 c -0.61854,-0.79447 -1.164269,-1.43249 -1.164269,-2.22622 0,-0.74391 0.483782,-1.35525 1.053166,-2.08256 0.727316,-0.56939 1.338654,-1.05317 2.082559,-1.05317 0.793747,0 1.431753,0.54573 2.22622,1.16427 v -0.009 a 2.6458333,2.6458333 0 0 0 1.74253,0.65784 2.6458333,2.6458333 0 0 0 2.645833,-2.64584 2.6458333,2.6458333 0 0 0 -2.645833,-2.64583 2.6458333,2.6458333 0 0 0 -1.74253,0.65888 v -0.0103 c -0.794467,0.61854 -1.432473,1.16427 -2.22622,1.16427 -0.793747,0 -1.431753,-0.54573 -2.22622,-1.16427 v 0.009 a 2.6458333,2.6458333 0 0 0 -1.742541,-0.65784 z"
           id="path92-0-2-96-22" />
        <path
           inkscape:connector-curvature="0"
           style="fill:#50c864;fill-opacity:0.31372549;stroke-width:0.26393938"
           d="m 64.822934,275.83333 a 2.6458333,2.6458333 0 0 1 -2.645833,-2.64584 2.6458333,2.6458333 0 0 1 0.658873,-1.74253 h -0.01035 c 0.61854,-0.79445 1.16427,-1.43247 1.16427,-2.22622 0,-0.79373 -0.54573,-1.43175 -1.16427,-2.22622 h 0.0093 a 2.6458333,2.6458333 0 0 1 -0.657841,-1.74252 2.6458333,2.6458333 0 0 1 2.645833,-2.64583 2.6458333,2.6458333 0 0 1 2.645834,2.64583 2.6458333,2.6458333 0 0 1 -0.658874,1.74252 h 0.01035 c -0.61854,0.79447 -1.164269,1.43249 -1.164269,2.22622 0,0.74391 0.483782,1.35525 1.053166,2.08256 0.727316,0.56939 1.338654,1.05317 2.082559,1.05317 0.793747,0 1.431753,-0.54573 2.22622,-1.16427 v 0.009 a 2.6458333,2.6458333 0 0 1 1.74253,-0.65784 2.6458333,2.6458333 0 0 1 2.645833,2.64584 2.6458333,2.6458333 0 0 1 -2.645833,2.64583 2.6458333,2.6458333 0 0 1 -1.74253,-0.65888 v 0.0103 c -0.794467,-0.61854 -1.432473,-1.16427 -2.22622,-1.16427 -0.793747,0 -1.431753,0.54573 -2.22622,1.16427 v -0.009 a 2.6458333,2.6458333 0 0 1 -1.742541,0.65784 z"
           id="path92-0-2-96-22-0" />
        <path
           inkscape:connector-curvature="0"
           style="fill:#78dc3c;fill-opacity:0.31372549;stroke-width:0.26393938"
           d="m 64.822713,270.54167 a 2.6458333,2.6458333 0 0 1 2.64583,2.64584 2.6458333,2.6458333 0 0 1 -0.65887,1.74253 h 0.0103 c -0.61854,0.79445 -1.16427,1.43247 -1.16427,2.22622 0,0.79373 0.54573,1.43175 1.16427,2.22622 h -0.009 a 2.6458333,2.6458333 0 0 1 0.65784,1.74252 2.6458333,2.6458333 0 0 1 -2.64583,2.64583 2.6458333,2.6458333 0 0 1 -2.64584,-2.64583 2.6458333,2.6458333 0 0 1 0.65888,-1.74252 h -0.0104 c 0.61854,-0.79447 1.16427,-1.43249 1.16427,-2.22622 0,-0.74391 -0.48378,-1.35525 -1.05317,-2.08256 -0.72731,-0.56939 -1.33865,-1.05317 -2.08256,-1.05317 -0.79374,0 -1.43175,0.54573 -2.22622,1.16427 v -0.009 a 2.6458333,2.6458333 0 0 1 -1.74253,0.65784 2.6458333,2.6458333 0 0 1 -2.64583,-2.64584 2.6458333,2.6458333 0 0 1 2.64583,-2.64583 2.6458333,2.6458333 0 0 1 1.74253,0.65888 v -0.0103 c 0.79447,0.61854 1.43248,1.16427 2.22622,1.16427 0.79375,0 1.43176,-0.54573 2.22622,-1.16427 v 0.009 a 2.6458333,2.6458333 0 0 1 1.74254,-0.65784 z"
           id="path92-0-2-96-22-0-5" />
      </g>
      <g
         transform="matrix(1.0614465,0,0,1.402652,-27.01816,-2.4321046)"
         id="text5397"
         aria-label="cleanX">
        <path
           inkscape:connector-curvature="0"
           id="path5423"
           style="font-style:normal;font-variant:normal;font-weight:bold;font-stretch:normal;font-family:'Noto Sans';-inkscape-font-specification:'Noto Sans Bold';stroke-width:0.26458332"
           d="m 60.368081,37.636374 q -1.291167,0 -2.00025,-0.709084 -0.6985,-0.719666 -0.6985,-2.254249 0,-1.058334 0.359833,-1.725084 0.359834,-0.66675 0.994834,-0.98425 0.645583,-0.3175 1.481666,-0.3175 0.592667,0 1.026583,0.116417 0.4445,0.116417 0.772584,0.275167 l -0.465667,1.217083 q -0.370417,-0.148167 -0.6985,-0.243417 -0.3175,-0.09525 -0.635,-0.09525 -1.227666,0 -1.227666,1.74625 0,0.867834 0.317499,1.280584 0.328084,0.41275 0.910167,0.41275 0.497417,0 0.878417,-0.127 0.381,-0.137584 0.740833,-0.370417 v 1.344083 q -0.359833,0.232833 -0.762,0.328083 -0.391583,0.105834 -0.994833,0.105834 z" />
        <path
           inkscape:connector-curvature="0"
           id="path5425"
           style="font-style:normal;font-variant:normal;font-weight:bold;font-stretch:normal;font-family:'Noto Sans';-inkscape-font-specification:'Noto Sans Bold';stroke-width:0.26458332"
           d="M 65.03533,37.53054 H 63.458414 V 29.487207 H 65.03533 Z" />
        <path
           inkscape:connector-curvature="0"
           id="path5427"
           style="font-style:normal;font-variant:normal;font-weight:bold;font-stretch:normal;font-family:'Noto Sans';-inkscape-font-specification:'Noto Sans Bold';stroke-width:0.26458332"
           d="m 69.067563,31.646207 q 1.195917,0 1.894417,0.687917 0.6985,0.677333 0.6985,1.93675 v 0.762 h -3.725334 q 0.02117,0.66675 0.391584,1.04775 0.381,0.381 1.04775,0.381 0.560916,0 1.016,-0.105833 0.455083,-0.116417 0.941916,-0.34925 v 1.217083 q -0.423333,0.211666 -0.899583,0.306916 -0.465667,0.105834 -1.132417,0.105834 -0.867833,0 -1.534583,-0.3175 -0.66675,-0.328084 -1.04775,-0.98425 -0.381,-0.656167 -0.381,-1.651 0,-1.016 0.338667,-1.68275 0.34925,-0.677333 0.963083,-1.016 0.613833,-0.338667 1.42875,-0.338667 z m 0.01058,1.121834 q -0.455083,0 -0.762,0.296333 -0.296333,0.296333 -0.34925,0.92075 h 2.211917 q -0.01058,-0.529167 -0.275167,-0.867833 -0.264583,-0.34925 -0.8255,-0.34925 z" />
        <path
           inkscape:connector-curvature="0"
           id="path5429"
           style="font-style:normal;font-variant:normal;font-weight:bold;font-stretch:normal;font-family:'Noto Sans';-inkscape-font-specification:'Noto Sans Bold';stroke-width:0.26458332"
           d="m 75.311725,31.635624 q 1.164167,0 1.778,0.508 0.624417,0.497417 0.624417,1.534583 v 3.852333 h -1.100667 l -0.306917,-0.783166 h -0.04233 q -0.370416,0.465666 -0.783166,0.677333 -0.41275,0.211667 -1.132417,0.211667 -0.772583,0 -1.280583,-0.4445 -0.508,-0.455084 -0.508,-1.386417 0,-0.92075 0.645583,-1.354666 0.645583,-0.4445 1.93675,-0.486834 l 1.005417,-0.03175 v -0.254 q 0,-0.455083 -0.243417,-0.66675 -0.232833,-0.211666 -0.656167,-0.211666 -0.423333,0 -0.8255,0.127 -0.402166,0.116416 -0.804333,0.296333 l -0.518583,-1.068917 q 0.465666,-0.243416 1.026583,-0.381 0.5715,-0.137583 1.185333,-0.137583 z m 0.836084,3.217333 -0.613834,0.02117 q -0.762,0.02117 -1.058333,0.275167 -0.296333,0.254 -0.296333,0.66675 0,0.359833 0.211666,0.518583 0.211667,0.148166 0.550334,0.148166 0.508,0 0.85725,-0.296333 0.34925,-0.306916 0.34925,-0.85725 z" />
        <path
           inkscape:connector-curvature="0"
           id="path5431"
           style="font-style:normal;font-variant:normal;font-weight:bold;font-stretch:normal;font-family:'Noto Sans';-inkscape-font-specification:'Noto Sans Bold';stroke-width:0.26458332"
           d="m 82.614207,31.646207 q 0.931333,0 1.49225,0.508 0.560916,0.497417 0.560916,1.608667 v 3.767666 h -1.576916 v -3.376083 q 0,-0.624416 -0.22225,-0.931333 -0.22225,-0.3175 -0.709084,-0.3175 -0.719666,0 -0.98425,0.497417 -0.264583,0.486833 -0.264583,1.407583 v 2.719916 h -1.576916 v -5.778499 h 1.206499 l 0.211667,0.740833 h 0.08467 q 0.275166,-0.4445 0.751416,-0.645583 0.486834,-0.201084 1.026584,-0.201084 z" />
        <path
           inkscape:connector-curvature="0"
           id="path5433"
           style="font-style:normal;font-variant:normal;font-weight:bold;font-stretch:normal;font-family:'Noto Sans';-inkscape-font-specification:'Noto Sans Bold';stroke-width:0.26458332"
           d="m 92.520202,37.53054 h -1.830917 l -1.756833,-2.857499 -1.756833,2.857499 h -1.7145 l 2.50825,-3.894666 -2.3495,-3.661833 h 1.767416 l 1.629834,2.719916 1.598083,-2.719916 h 1.725083 l -2.370666,3.7465 z" />
      </g>
    </g>
  </g>
</svg>
